<?xml version="1.0" encoding="utf-8"?>
<!-- Generator: Adobe Illustrator 19.0.0, SVG Export Plug-In . SVG Version: 6.00 Build 0)  -->
<svg version="1.1" id="Layer_1" xmlns="http://www.w3.org/2000/svg" xmlns:xlink="http://www.w3.org/1999/xlink" x="0px" y="0px"
	 width="479.7px" height="209.8px" viewBox="0 0 479.7 209.8" style="enable-background:new 0 0 479.7 209.8;" xml:space="preserve"
	>
<style type="text/css">
	.st0{fill:#FFFFFF;}
</style>
<path class="st0" d="M0,61.7h27.9c24.7,0,40.5,15,40.5,40.8c0,25.8-15.8,41.1-40.5,41.1H0V61.7z M27.1,126.4
	c13.3,0,21.4-8.2,21.4-23.9c0-15.6-8.5-23.6-21.4-23.6h-7.9v47.5H27.1z M77.4,61.7h49.1v17.2H96.6v14.9h23.9v17.2H96.6v15.5h31.5
	v17.2H77.4V61.7z M137.6,61.7H157l21.7,38.2c3.1,5.4,6.6,14,6.6,14h0.2c0,0-0.9-8.8-0.9-14V61.7h19.2v81.9h-19.3l-21.8-38.1
	c-3.1-5.4-6.6-14-6.6-14h-0.2c0,0,0.9,8.8,0.9,14v38.1h-19.2V61.7z M232.9,78.9h-23.8V61.7h66.8v17.2h-23.8v64.7h-19.2V78.9z
	 M280.1,61.7h19.2v51.8c0,8.6,5.4,13.1,13.6,13.1c8.2,0,13.6-4.6,13.6-13.1V61.7h19.2v51.8c0,18.4-12.9,31.5-32.7,31.5
	c-20,0-32.9-13-32.9-31.5V61.7z M358.6,61.7h27.3c8,0,11.8,0.6,15.2,1.9c8.9,3.5,14.5,11.9,14.5,23.8c0,8.7-3.9,18.2-11.7,22.3v0.2
	c0,0,1.1,1.5,3,4.9l15.3,28.6h-21.4l-13.9-27.6h-9v27.6h-19.2V61.7z M386.1,98.8c6.1,0,10-3.6,10-10.1c0-6.2-2.2-9.8-11.8-9.8h-6.5
	v19.9H386.1z M429,61.7h49.1v17.2h-30v14.9h23.9v17.2h-23.9v15.5h31.5v17.2H429V61.7z M149.1,170.7c8.7,0,13,4.9,13,4.9l-1.9,2.7
	c0,0-4.2-4.2-11-4.2c-8.5,0-14.6,6.9-14.6,15.8c0,9,6.1,16.4,14.7,16.4c7.3,0,11.8-5.1,11.8-5.1l2.1,2.6c0,0-5,5.9-13.9,5.9
	c-10.7,0-18.4-8.8-18.4-19.8C130.9,179,138.8,170.7,149.1,170.7 M175,171.3h20.4v3.3h-16.9v13.8h13.8v3.3h-13.8v14h17.8v3.3H175
	V171.3z M208.6,171.3h3.5l18.5,27.2c1.3,1.9,3,5.1,3,5.1h0.1c0,0-0.3-3.1-0.3-5.1v-27.2h3.5v37.8h-3.4l-18.5-27.2
	c-1.2-1.9-3-5.1-3-5.1h-0.1c0,0,0.3,3.1,0.3,5.1v27.2h-3.6V171.3z M259.7,174.6h-13v-3.3h29.6v3.3h-13v34.5h-3.5V174.6z M286,171.3
	h20.4v3.3h-16.9v13.8h13.8v3.3h-13.8v14h17.8v3.3H286V171.3z M319.6,171.3h10.7c3.7,0,5.4,0.4,6.8,1c3.4,1.6,5.5,5.2,5.5,9.7
	c0,5.1-2.8,9-6.9,10.2v0.1c0,0,0.4,0.5,0.9,1.5l7.9,15.2h-4.1l-8.2-15.9h-9.1v15.9h-3.6V171.3z M331.8,189.9c4.4,0,7.2-3,7.2-7.7
	c0-3.1-1.2-5.4-3.3-6.6c-1.1-0.6-2.4-0.9-5.1-0.9h-7.3v15.2H331.8z M356.3,189.2c58.2-4.9,96.9-12.5,113.1-17.4l-0.7-3.3
	c-16.1,4.9-54.5,12.4-112.4,17.3V189.2z M117.6,185.7c-57.4-4.9-94.1-12.4-108.7-17.1l-0.8,3.3c14.8,4.8,51.7,12.4,109.5,17.3V185.7
	z M177.9,14C87.6,17.6,28.8,28.5,7.8,34.9l0.7,3.3C29.4,31.8,88,20.9,177.9,17.4V14z M299.8,13.9v3.4c92.5,3.6,149.7,14.5,169,20.8
	l0.8-3.3C450.2,28.6,392.7,17.5,299.8,13.9 M203.8,2.7h-10.7V0h24.3v2.7h-10.7v28.3h-2.9V2.7z M227.1,0h2.9v14.2h17.3V0h2.9v31.1
	h-2.9V16.9H230v14.2h-2.9V0z M263.9,0h16.8v2.7h-13.8v11.3h11.3v2.7h-11.3v11.5h14.6v2.7h-17.5V0z"/>
</svg>
